<svg width="18" height="18" viewBox="0 0 18 18" fill="none" xmlns="http://www.w3.org/2000/svg">
<path d="M3.92481 12.0675L3.92457 12.0672C2.69283 10.5928 1.8594 9.20749 1.30638 7.71215C0.945724 6.74453 0.802281 5.93254 0.86381 5.1615L0.863861 5.16087C0.91679 4.53143 1.17271 3.98548 1.62194 3.53795L2.7888 2.3755L2.79134 2.37297L2.79137 2.373C3.14834 2.03399 3.56462 1.85 4.00536 1.85C4.44832 1.85 4.86166 2.03329 5.20686 2.36986C5.42164 2.56818 5.63871 2.78763 5.84437 2.99872L5.85265 3.00722C5.95591 3.11311 6.05557 3.21532 6.16103 3.32038L7.09029 4.24613C7.09037 4.24621 7.09045 4.24629 7.09053 4.24637C7.45313 4.60439 7.65282 5.0295 7.65282 5.47182C7.65282 5.91477 7.44947 6.33968 7.09078 6.69702C6.9939 6.79353 6.89806 6.88901 6.80547 6.98433L6.80497 6.98485C6.56388 7.23067 6.31283 7.48394 6.04613 7.72891C6.24593 8.16189 6.52644 8.59673 6.93635 9.11371C7.81056 10.1814 8.72211 11.0089 9.72329 11.6422L9.72342 11.6423C9.8191 11.7029 9.92819 11.7589 10.0532 11.8212L10.0549 11.8221C10.1228 11.8558 10.1956 11.8921 10.2691 11.9313L11.3062 10.8981C11.6568 10.5488 12.0771 10.3539 12.5228 10.3539C12.9683 10.3539 13.386 10.5487 13.7279 10.9022L15.602 12.7692C15.9612 13.1271 16.1491 13.55 16.15 13.9844C16.1509 14.4184 15.965 14.8461 15.6105 15.2142C15.6104 15.2142 15.6104 15.2143 15.6104 15.2143L15.5024 15.1102C15.3588 15.2594 15.2091 15.4055 15.0625 15.5454L3.92481 12.0675ZM3.92481 12.0675C5.42336 13.852 7.22794 15.2577 9.28772 16.2524L9.28891 16.2529C10.0693 16.6213 11.1295 17.067 12.3166 17.1435L12.3166 17.1435L12.3198 17.1436L12.3293 17.1441C12.3972 17.147 12.4662 17.15 12.5384 17.15C13.3544 17.15 14.0182 16.8672 14.556 16.2865C14.5567 16.2858 14.5575 16.285 14.5584 16.284C14.561 16.2813 14.5643 16.2778 14.5678 16.2738C14.5711 16.2699 14.5763 16.2636 14.5819 16.2554C14.7434 16.0623 14.9258 15.8861 15.1238 15.6947C15.1379 15.6811 15.1521 15.6674 15.1663 15.6536L3.92481 12.0675ZM4.46005 3.13737L4.46017 3.13725C4.30255 2.97748 4.14547 2.9115 4.00536 2.9115C3.86041 2.9115 3.69655 2.97902 3.5362 3.13292L2.37654 4.2882C2.10239 4.56131 1.95848 4.87315 1.92406 5.25145C1.87664 5.84681 1.99165 6.51055 2.30812 7.35231L2.30831 7.35281C2.81914 8.72623 3.59245 10.0109 4.74759 11.3962C6.14732 13.0645 7.83371 14.3782 9.75461 15.3044C10.4657 15.6416 11.3954 16.0284 12.3884 16.0919C12.4417 16.095 12.4936 16.0978 12.5415 16.0978C13.0532 16.0978 13.4394 15.934 13.7676 15.5827C13.9668 15.3456 14.1853 15.1344 14.3906 14.9358C14.4031 14.9238 14.4154 14.9118 14.4277 14.8999L14.4285 14.8991C14.5747 14.7597 14.7095 14.6284 14.8375 14.4917L14.839 14.4902C15.0128 14.31 15.0837 14.1452 15.0848 13.999C15.086 13.8542 15.0188 13.6964 14.8505 13.5288L12.9693 11.6577L12.9652 11.6537L12.9653 11.6537C12.8545 11.5347 12.6981 11.4248 12.5228 11.4248C12.3812 11.4248 12.2205 11.4955 12.0577 11.6577L10.8909 12.8201C10.835 12.8758 10.6346 13.0752 10.3201 13.0752C10.1942 13.0752 10.0713 13.0436 9.94973 12.9813C9.94008 12.9765 9.93187 12.9718 9.9268 12.9689L9.92613 12.9685L9.91629 12.9631L9.90938 12.9597L9.90286 12.9555C9.80718 12.8949 9.69809 12.8389 9.57311 12.7766L9.57187 12.776C9.5506 12.7652 9.52867 12.7541 9.50624 12.7428C9.39265 12.6856 9.26619 12.622 9.14726 12.5449C9.14701 12.5447 9.14677 12.5446 9.14652 12.5444L9.22815 12.4186C8.14241 11.7317 7.15651 10.8396 6.22052 9.6896L4.46005 3.13737ZM4.46005 3.13737L4.46528 3.1422C4.64372 3.30669 4.81286 3.47803 4.99383 3.66134C5.02148 3.68934 5.0494 3.71763 5.07768 3.74621L4.46005 3.13737ZM14.947 14.5943C15.3276 14.1995 15.3308 13.7955 14.9564 13.4225L14.947 14.5943ZM14.947 14.5943C14.816 14.7341 14.6787 14.8678 14.5321 15.0077L14.947 14.5943Z" fill="white" stroke="white" stroke-width="0.3"/>
<path d="M17 1L11 7M11 7V3M11 7H14H15" stroke="white" stroke-width="1.3" stroke-linecap="round"/>
</svg>
