<svg width="16" height="15" viewBox="0 0 16 15" fill="none" xmlns="http://www.w3.org/2000/svg">
<path d="M8.38116 1.68576L14.0762 5.37356L8.41786 9.68879L8.41748 9.68908C8.17425 9.87532 7.82575 9.87532 7.58252 9.68908L7.58243 9.68901L1.94094 5.37381L7.63636 1.68576C7.75451 1.60937 7.88275 1.57288 8.00876 1.57288C8.13477 1.57288 8.26302 1.60937 8.38116 1.68576ZM1.60044 12.7765V6.18568L7.06862 10.3582L7.06861 10.3582L7.07078 10.3599C7.33714 10.5586 7.66905 10.6814 8.00876 10.6814C8.33774 10.6814 8.67476 10.5819 8.95224 10.3557L14.4171 6.18568V12.7765C14.4171 13.1241 14.1333 13.4101 13.7559 13.4101H2.26158C1.8874 13.4101 1.60044 13.1101 1.60044 12.7765ZM8.84581 0.994265V0.994265L8.84538 0.993981C8.34224 0.668673 7.67528 0.668673 7.17215 0.993981L7.172 0.994076L1.42603 4.71486C1.00252 4.9825 0.75 5.45343 0.75 5.9451V12.7765C0.75 13.6014 1.4299 14.25 2.26158 14.25H13.7384C14.5701 14.25 15.25 13.6014 15.25 12.7765V5.9451C15.25 5.45348 14.9975 4.9826 14.5741 4.71494L8.84581 0.994265Z" fill="#5D5FFC" stroke="#5D5FFC" stroke-width="0.5"/>
</svg>
