<svg width="17" height="17" viewBox="0 0 17 17" fill="none" xmlns="http://www.w3.org/2000/svg">
<path d="M3.92481 11.0675L3.92457 11.0672C2.69283 9.59277 1.8594 8.20749 1.30638 6.71215C0.945724 5.74453 0.802281 4.93254 0.86381 4.1615L0.863861 4.16087C0.91679 3.53143 1.17271 2.98548 1.62194 2.53795L2.7888 1.3755L2.79134 1.37297L2.79137 1.373C3.14834 1.03399 3.56462 0.85 4.00536 0.85C4.44832 0.85 4.86166 1.03329 5.20686 1.36986C5.42164 1.56818 5.63871 1.78763 5.84437 1.99872L5.85265 2.00722C5.95591 2.11311 6.05557 2.21532 6.16103 2.32038L7.09029 3.24613C7.09037 3.24621 7.09045 3.24629 7.09053 3.24637C7.45313 3.60439 7.65282 4.0295 7.65282 4.47182C7.65282 4.91477 7.44947 5.33968 7.09078 5.69702C6.9939 5.79353 6.89806 5.88901 6.80547 5.98433L6.80497 5.98485C6.56388 6.23067 6.31283 6.48394 6.04613 6.72891C6.24593 7.16189 6.52644 7.59673 6.93635 8.11371C7.81056 9.18141 8.72211 10.0089 9.72329 10.6422L9.72342 10.6423C9.8191 10.7029 9.92819 10.7589 10.0532 10.8212L10.0549 10.8221C10.1228 10.8558 10.1956 10.8921 10.2691 10.9313L11.3062 9.89808C11.6568 9.54883 12.0771 9.35394 12.5228 9.35394C12.9683 9.35394 13.386 9.5487 13.7279 9.90219L15.602 11.7692C15.9612 12.1271 16.1491 12.55 16.15 12.9844C16.1509 13.4184 15.965 13.8461 15.6105 14.2142C15.6104 14.2142 15.6104 14.2143 15.6104 14.2143L15.5024 14.1102C15.3588 14.2594 15.2091 14.4055 15.0625 14.5454L3.92481 11.0675ZM3.92481 11.0675C5.42336 12.852 7.22794 14.2577 9.28772 15.2524L9.28891 15.2529C10.0693 15.6213 11.1295 16.067 12.3166 16.1435L12.3166 16.1435L12.3198 16.1436L12.3293 16.1441C12.3972 16.147 12.4662 16.15 12.5384 16.15C13.3544 16.15 14.0182 15.8672 14.556 15.2865C14.5567 15.2858 14.5575 15.285 14.5584 15.284C14.561 15.2813 14.5643 15.2778 14.5678 15.2738C14.5711 15.2699 14.5763 15.2636 14.5819 15.2554C14.7434 15.0623 14.9258 14.8861 15.1238 14.6947C15.1379 14.6811 15.1521 14.6674 15.1663 14.6536L3.92481 11.0675ZM4.46005 2.13737L4.46017 2.13725C4.30255 1.97748 4.14547 1.9115 4.00536 1.9115C3.86041 1.9115 3.69655 1.97902 3.5362 2.13292L2.37654 3.2882C2.10239 3.56131 1.95848 3.87315 1.92406 4.25145C1.87664 4.84681 1.99165 5.51055 2.30812 6.35231L2.30831 6.35281C2.81914 7.72623 3.59245 9.0109 4.74759 10.3962C6.14732 12.0645 7.83371 13.3782 9.75461 14.3044C10.4657 14.6416 11.3954 15.0284 12.3884 15.0919C12.4417 15.095 12.4936 15.0978 12.5415 15.0978C13.0532 15.0978 13.4394 14.934 13.7676 14.5827C13.9668 14.3456 14.1853 14.1344 14.3906 13.9358C14.4031 13.9238 14.4154 13.9118 14.4277 13.8999L14.4285 13.8991C14.5747 13.7597 14.7095 13.6284 14.8375 13.4917L14.839 13.4902C15.0128 13.31 15.0837 13.1452 15.0848 12.999C15.086 12.8542 15.0188 12.6964 14.8505 12.5288L12.9693 10.6577L12.9652 10.6537L12.9653 10.6537C12.8545 10.5347 12.6981 10.4248 12.5228 10.4248C12.3812 10.4248 12.2205 10.4955 12.0577 10.6577L10.8909 11.8201C10.835 11.8758 10.6346 12.0752 10.3201 12.0752C10.1942 12.0752 10.0713 12.0436 9.94973 11.9813C9.94008 11.9765 9.93187 11.9718 9.9268 11.9689L9.92613 11.9685L9.91629 11.9631L9.90938 11.9597L9.90286 11.9555C9.80718 11.8949 9.69809 11.8389 9.57311 11.7766L9.57187 11.776C9.5506 11.7652 9.52867 11.7541 9.50624 11.7428C9.39265 11.6856 9.26619 11.622 9.14726 11.5449C9.14701 11.5447 9.14677 11.5446 9.14652 11.5444L9.22815 11.4186C8.14241 10.7317 7.15651 9.83962 6.22052 8.6896L4.46005 2.13737ZM4.46005 2.13737L4.46528 2.1422C4.64372 2.30669 4.81286 2.47803 4.99383 2.66134C5.02148 2.68934 5.0494 2.71763 5.07768 2.74621L4.46005 2.13737ZM14.947 13.5943C15.3276 13.1995 15.3308 12.7955 14.9564 12.4225L14.947 13.5943ZM14.947 13.5943C14.816 13.7341 14.6787 13.8678 14.5321 14.0077L14.947 13.5943Z" fill="#5D5FFC" stroke="#5D5FFC" stroke-width="0.3"/>
</svg>
