<svg width="17" height="17" viewBox="0 0 17 17" fill="none" xmlns="http://www.w3.org/2000/svg">
<path d="M16.9555 6.52051C16.8436 6.17628 16.5383 5.93257 16.1785 5.90002L11.2711 5.45449L9.33167 0.913889C9.18848 0.580295 8.86267 0.36499 8.50002 0.36499C8.13738 0.36499 7.81144 0.580295 7.66915 0.913889L5.72972 5.45449L0.821542 5.90002C0.461749 5.93322 0.157079 6.17693 0.044498 6.52051C-0.0674347 6.86474 0.0359377 7.2423 0.308052 7.48095L4.01766 10.7337L2.92388 15.5511C2.84385 15.9053 2.98134 16.2716 3.27524 16.4841C3.43322 16.5989 3.61882 16.6562 3.80507 16.6562C3.96513 16.6562 4.12531 16.6137 4.26837 16.528L8.50002 13.9978L12.7309 16.528C13.0413 16.7135 13.4315 16.6965 13.7248 16.4841C14.0187 16.2716 14.1562 15.9053 14.0762 15.5511L12.9824 10.7337L16.692 7.48095C16.964 7.2423 17.0675 6.86552 16.9555 6.52051Z" fill="#EEEEEE"/>
</svg>
