<svg width="24" height="24" viewBox="0 0 24 24" fill="none" xmlns="http://www.w3.org/2000/svg">
<path fill-rule="evenodd" clip-rule="evenodd" d="M24 12C24 9.82291 23.4635 7.81772 22.3906 5.98438C21.3177 4.14062 19.862 2.6823 18.0234 1.60938C16.1849 0.536453 14.1771 0 12 0C9.82291 0 7.81511 0.536453 5.97656 1.60938C4.13801 2.6823 2.6823 4.13801 1.60938 5.97656C0.536453 7.81511 0 9.82291 0 12C0 14.1771 0.536453 16.1849 1.60938 18.0234C2.6823 19.862 4.13801 21.3177 5.97656 22.3906C7.81511 23.4635 9.82291 24 12 24C14.1771 24 16.1849 23.4635 18.0234 22.3906C19.862 21.3177 21.3177 19.862 22.3906 18.0234C23.4635 16.1849 24 14.1771 24 12ZM18.0007 9C18.0007 8.08333 17.7117 7.23438 17.1335 6.45312C16.5554 5.67187 15.8341 5.06771 14.9695 4.64062C14.1049 4.21354 13.2195 4 12.3132 4C9.78196 4 7.84969 5.10936 6.51635 7.32812C6.36009 7.57813 6.40176 7.79687 6.64135 7.98438L8.70385 9.54687C8.77676 9.60938 8.87572 9.64062 9.00072 9.64062C9.16739 9.64062 9.2976 9.57812 9.39135 9.45312C9.94343 8.74479 10.3913 8.26563 10.7351 8.01562C11.0893 7.76562 11.5372 7.64062 12.0788 7.64062C12.5788 7.64062 13.0242 7.77604 13.4148 8.04688C13.8054 8.31771 14.0007 8.625 14.0007 8.96875C14.0007 9.36458 13.8966 9.68229 13.6882 9.92188C13.4799 10.1615 13.1257 10.3958 12.6257 10.625C11.9695 10.9167 11.3679 11.3672 10.821 11.9766C10.2742 12.5859 10.0007 13.2396 10.0007 13.9375V14.5C10.0007 14.6458 10.0476 14.7656 10.1413 14.8594C10.2351 14.9531 10.3549 15 10.5007 15H13.5007C13.6466 15 13.7663 14.9531 13.8601 14.8594C13.9538 14.7656 14.0007 14.6458 14.0007 14.5C14.0007 14.3021 14.1127 14.0443 14.3367 13.7266C14.5606 13.4089 14.8445 13.151 15.1882 12.9531C15.5216 12.7656 15.7768 12.6172 15.9538 12.5078C16.1309 12.3984 16.3705 12.2161 16.6726 11.9609C16.9747 11.7057 17.2064 11.4557 17.3679 11.2109C17.5294 10.9661 17.6752 10.651 17.8054 10.2656C17.9356 9.88021 18.0007 9.45833 18.0007 9ZM14 19.5V16.5C14 16.3542 13.9531 16.2344 13.8594 16.1406C13.7656 16.0469 13.6458 16 13.5 16H10.5C10.3542 16 10.2344 16.0469 10.1406 16.1406C10.0469 16.2344 10 16.3542 10 16.5V19.5C10 19.6458 10.0469 19.7656 10.1406 19.8594C10.2344 19.9531 10.3542 20 10.5 20H13.5C13.6458 20 13.7656 19.9531 13.8594 19.8594C13.9531 19.7656 14 19.6458 14 19.5Z" fill="#E52C2D"/>
</svg>
