<svg width="25" height="30" viewBox="0 0 25 30" fill="none" xmlns="http://www.w3.org/2000/svg">
<path d="M12.5 8.95522C10.5357 8.95522 8.92857 10.5672 8.92857 12.5373C8.92857 14.5075 10.5357 16.1194 12.5 16.1194C14.4643 16.1194 16.0714 14.5075 16.0714 12.5373C16.0714 10.5672 14.4643 8.95522 12.5 8.95522ZM12.5 0C18.3393 0 25 4.40597 25 12.806C25 18.1433 21.1964 23.7672 13.5893 29.6239C12.9464 30.1254 12.0536 30.1254 11.4107 29.6239C3.80357 23.7493 0 18.1433 0 12.806C0 4.40597 6.66071 0 12.5 0Z" fill="#E52C2D"/>
</svg>
