<svg width="40" height="53" viewBox="0 0 40 53" fill="none" xmlns="http://www.w3.org/2000/svg">
<path d="M20 0C8.97333 0 0 8.97908 0 20.0185C0 35.7043 18.12 51.9002 18.8911 52.5804C19.2089 52.8609 19.6044 53 20 53C20.3956 53 20.7911 52.8609 21.1089 52.5826C21.88 51.9002 40 35.7043 40 20.0185C40 8.97908 31.0267 0 20 0ZM20 30.9167C13.8733 30.9167 8.88889 25.9634 8.88889 19.875C8.88889 13.7866 13.8733 8.83333 20 8.83333C26.1267 8.83333 31.1111 13.7866 31.1111 19.875C31.1111 25.9634 26.1267 30.9167 20 30.9167Z" fill="#8DBB19"/>
</svg>
