<svg width="17" height="23" viewBox="0 0 17 23" fill="none" xmlns="http://www.w3.org/2000/svg">
<path d="M1.27567 20.7H14.99C15.6185 20.7 16.1328 21.2175 16.1328 21.85C16.1328 22.4825 15.6185 23 14.99 23H1.27567C0.647098 23 0.132812 22.4825 0.132812 21.85C0.132812 21.2175 0.647098 20.7 1.27567 20.7ZM8.13281 5.75C6.87567 5.75 5.8471 6.785 5.8471 8.05C5.8471 9.315 6.87567 10.35 8.13281 10.35C9.38996 10.35 10.4185 9.315 10.4185 8.05C10.4185 6.785 9.38996 5.75 8.13281 5.75ZM8.13281 0C11.87 0 16.1328 2.829 16.1328 8.2225C16.1328 11.6495 13.6985 15.2605 8.82996 19.021C8.41853 19.343 7.8471 19.343 7.43567 19.021C2.5671 15.249 0.132812 11.6495 0.132812 8.2225C0.132812 2.829 4.39567 0 8.13281 0Z" fill="#E52C2D"/>
</svg>
