<svg width="50" height="50" viewBox="0 0 50 50" fill="none" xmlns="http://www.w3.org/2000/svg">
<path d="M50.0039 33.8379C50.0039 27.6333 46.4444 22.0959 41.1134 19.4023C40.9478 31.2989 31.3028 40.9439 19.4062 41.1095C22.0998 46.4405 27.6372 50 33.8418 50C36.7509 50 39.5799 49.2253 42.0656 47.7532L49.9334 49.9295L47.7571 42.0616C49.2292 39.576 50.0039 36.747 50.0039 33.8379Z" fill="white" fill-opacity="0.5"/>
<path d="M38.1836 19.0918C38.1836 8.56438 29.6192 0 19.0918 0C8.56438 0 0 8.56438 0 19.0918C0 22.5227 0.913239 25.8633 2.6474 28.796L0.0701904 38.113L9.38759 35.5362C12.3203 37.2704 15.6609 38.1836 19.0918 38.1836C29.6192 38.1836 38.1836 29.6192 38.1836 19.0918ZM16.1621 14.6484H13.2324C13.2324 11.4174 15.8607 8.78906 19.0918 8.78906C22.3228 8.78906 24.9512 11.4174 24.9512 14.6484C24.9512 16.2884 24.2569 17.8646 23.0457 18.9724L20.5566 21.2505V23.5352H17.627V19.9604L21.0678 16.811C21.6827 16.2483 22.0215 15.4804 22.0215 14.6484C22.0215 13.0329 20.7073 11.7188 19.0918 11.7188C17.4763 11.7188 16.1621 13.0329 16.1621 14.6484ZM17.627 26.4648H20.5566V29.3945H17.627V26.4648Z" fill="white"/>
</svg>
