<svg xmlns="http://www.w3.org/2000/svg">

		<symbol id="nav-prev-dark-arrow">
		 	<path
		     d="M25 9C25.5523 9 26 8.55228 26 8C26 7.44771 25.5523 7 25 7L25 9ZM0.292893 7.29289C-0.0976314 7.68342 -0.0976315 8.31658 0.292892 8.7071L6.65685 15.0711C7.04738 15.4616 7.68054 15.4616 8.07107 15.0711C8.46159 14.6805 8.46159 14.0474 8.07107 13.6569L2.41421 8L8.07107 2.34314C8.46159 1.95262 8.46159 1.31945 8.07107 0.92893C7.68054 0.538406 7.04738 0.538406 6.65686 0.92893L0.292893 7.29289ZM25 7L1 7L1 9L25 9L25 7Z"
		     fill="#333333"
		     fill-opacity="0.5"
		  />

		</symbol>
		<symbol id="nav-next-dark-arrow">
		 	<path
         d="M1 9C0.447715 9 4.82821e-08 8.55228 0 8C1.13222e-08 7.44771 0.447715 7 1 7L1 9ZM25.7071 7.29289C26.0976 7.68342 26.0976 8.31658 25.7071 8.7071L19.3431 15.0711C18.9526 15.4616 18.3195 15.4616 17.9289 15.0711C17.5384 14.6805 17.5384 14.0474 17.9289 13.6569L23.5858 8L17.9289 2.34314C17.5384 1.95262 17.5384 1.31945 17.9289 0.92893C18.3195 0.538406 18.9526 0.538406 19.3431 0.92893L25.7071 7.29289ZM1 7L25 7L25 9L1 9L1 7Z"
         fill="#333333"
         fill-opacity="0.5"
      />
		
		</symbol>

		<symbol id="nav-prev-white-arrow">
		 	<path
        d="M31 9C31.5523 9 32 8.55228 32 8C32 7.44771 31.5523 7 31 7L31 9ZM0.292893 7.29289C-0.0976314 7.68341 -0.0976315 8.31658 0.292892 8.7071L6.65685 15.0711C7.04738 15.4616 7.68054 15.4616 8.07107 15.0711C8.46159 14.6805 8.46159 14.0474 8.07107 13.6569L2.41421 8L8.07107 2.34314C8.46159 1.95262 8.46159 1.31945 8.07107 0.92893C7.68054 0.538405 7.04738 0.538405 6.65686 0.92893L0.292893 7.29289ZM31 7L1 7L1 9L31 9L31 7Z"
        fill="white"
      />

		</symbol>
		<symbol id="nav-next-white-arrow">
		 <path
        d="M1 9C0.447715 9 4.8282e-08 8.55228 0 8C1.13222e-08 7.44771 0.447715 7 1 7L1 9ZM31.7071 7.29289C32.0976 7.68341 32.0976 8.31658 31.7071 8.7071L25.3431 15.0711C24.9526 15.4616 24.3195 15.4616 23.9289 15.0711C23.5384 14.6805 23.5384 14.0474 23.9289 13.6569L29.5858 8L23.9289 2.34314C23.5384 1.95262 23.5384 1.31945 23.9289 0.92893C24.3195 0.538405 24.9526 0.538405 25.3431 0.92893L31.7071 7.29289ZM1 7L31 7L31 9L1 9L1 7Z"
        fill="white"
       />
		
		</symbol>


		<symbol id="telegram"  viewBox="0 0 40 40"> 
		<path
    fill-rule="evenodd"
    clip-rule="evenodd"
    d="M20 40C31.0457 40 40 31.0457 40 20C40 8.9543 31.0457 0 20 0C8.9543 0 0 8.9543 0 20C0 31.0457 8.9543 40 20 40ZM27.4435 28.7916L30.9339 11.8742C31.0227 11.6083 31.0446 11.3233 30.9978 11.0461C30.951 10.7689 30.837 10.5086 30.6664 10.2898C30.5003 10.1392 30.2961 10.0412 30.0779 10.0073C29.8598 9.97346 29.6368 10.0051 29.4355 10.0986L9.06373 18.2367C8.37991 18.5204 8.02314 18.8409 7.98746 19.1985C7.95179 19.552 8.22531 19.8171 8.80804 19.9938L14.0407 21.6954L26.177 13.7916C26.3239 13.6913 26.4904 13.626 26.6646 13.6005C26.8192 13.5882 26.9202 13.6252 26.9738 13.7115C27.0273 13.7978 26.9857 13.8964 26.8489 14.0012L17.0495 23.2059L16.6392 28.7916C16.871 28.8009 17.101 28.7456 17.3052 28.6313C17.4514 28.5175 17.5886 28.3918 17.7155 28.2552L20.2783 25.7028L25.5645 29.7472C25.7334 29.8759 25.9299 29.9599 26.1371 29.9921C26.3443 30.0244 26.5559 30.0038 26.7537 29.9322C26.943 29.8069 27.1031 29.6396 27.2223 29.4423C27.3416 29.2451 27.4172 29.0228 27.4435 28.7916Z"
    fill="#008cff"
    fill-opacity="0.7"
    /></symbol>

		<symbol id="whatsapp">
		 <path
      d="M20.1365 0H20.1264C9.02643 0 0 9.02895 0 20.1314C0 24.5352 1.41927 28.6168 3.83252 31.931L1.32364 39.4098L9.06166 36.9361C12.2449 39.0449 16.0422 40.2629 20.1365 40.2629C31.2364 40.2629 40.2629 31.2314 40.2629 20.1314C40.2629 9.03146 31.2364 0 20.1365 0ZM31.8504 28.4281C31.3648 29.7996 29.4372 30.937 27.8996 31.2691C26.8478 31.4931 25.4738 31.6718 20.8486 29.7543C14.9325 27.3033 11.1226 21.2915 10.8257 20.9015C10.5413 20.5114 8.43507 17.7182 8.43507 14.8293C8.43507 11.9405 9.90215 10.5338 10.4935 9.92983C10.9792 9.43409 11.7819 9.20761 12.5519 9.20761C12.8011 9.20761 13.025 9.2202 13.2264 9.23026C13.8177 9.25543 14.1147 9.29066 14.5047 10.2243C14.9904 11.3944 16.1731 14.2833 16.314 14.5802C16.4574 14.8771 16.6009 15.2798 16.3996 15.6698C16.2108 16.0724 16.0448 16.2511 15.7478 16.5933C15.4509 16.9356 15.169 17.1973 14.8721 17.5647C14.6003 17.8843 14.2933 18.2265 14.6356 18.8179C14.9778 19.3966 16.1605 21.3267 17.9019 22.8769C20.149 24.8774 21.9709 25.5166 22.6227 25.7884C23.1084 25.9897 23.6871 25.9419 24.042 25.5644C24.4924 25.0787 25.0485 24.2735 25.6147 23.4808C26.0174 22.9121 26.5257 22.8416 27.0592 23.0429C27.6027 23.2317 30.479 24.6535 31.0704 24.9479C31.6617 25.2448 32.0518 25.3857 32.1952 25.6349C32.3361 25.884 32.3361 27.0541 31.8504 28.4281Z"
      fill="#0bf659"
      fill-opacity="0.7"
    /></symbol>

		<symbol id="status">
		 <path
      d="M6.57216 13C6.2614 13 5.95124 12.8783 5.71392 12.6343L0 6.7587L1.71648 4.99304L6.57216 9.98608L16.2835 0L18 1.76566L7.4304 12.6343C7.19308 12.8783 6.88292 13 6.57216 13Z"
      fill="#E52C2D"
    /></symbol>

		<symbol id="status-x"> 
			<path
       fill-rule="evenodd"
       clip-rule="evenodd"
       d="M7.10556 8.87431L12.4435 14.2122L14.2112 12.4444L8.87333 7.10654L14.2121 1.76777L12.4443 0L7.10556 5.33877L1.76679 0L-0.000976562 1.76777L5.3378 7.10654L-0.000106812 12.4444L1.76766 14.2122L7.10556 8.87431Z"
       fill="#333333"
       fill-opacity="0.5"
    	/>
		</symbol>

		<symbol id="link-white-arrow">
		
		<path d="M1 3.5C0.723858 3.5 0.5 3.72386 0.5 4C0.5 4.27614 0.723858 4.5 1 4.5L1 3.5ZM31.3536 4.35356C31.5488 4.15829 31.5488 3.84171 31.3536 3.64645L28.1716 0.464468C27.9763 0.269206 27.6597 0.269206 27.4645 0.464468C27.2692 0.659731 27.2692 0.976313 27.4645 1.17158L30.2929 4L27.4645 6.82843C27.2692 7.02369 27.2692 7.34027 27.4645 7.53554C27.6597 7.7308 27.9763 7.7308 28.1716 7.53554L31.3536 4.35356ZM1 4.5L31 4.5L31 3.5L1 3.5L1 4.5Z" fill="white"/>

		</symbol>
		<symbol id="link-grey-arrow">
		
			
<path d="M1 3.5C0.723858 3.5 0.5 3.72386 0.5 4C0.5 4.27614 0.723858 4.5 1 4.5L1 3.5ZM31.3536 4.35356C31.5488 4.15829 31.5488 3.84171 31.3536 3.64645L28.1716 0.464468C27.9763 0.269206 27.6597 0.269206 27.4645 0.464468C27.2692 0.659731 27.2692 0.976313 27.4645 1.17158L30.2929 4L27.4645 6.82843C27.2692 7.02369 27.2692 7.34027 27.4645 7.53554C27.6597 7.7308 27.9763 7.7308 28.1716 7.53554L31.3536 4.35356ZM1 4.5L31 4.5L31 3.5L1 3.5L1 4.5Z" fill="#333333"/>					
		</symbol>
</svg>