<svg xmlns="http://www.w3.org/2000/svg">

		<symbol id="nav-prev-dark-arrow">
		 	<path
		     d="M25 9C25.5523 9 26 8.55228 26 8C26 7.44771 25.5523 7 25 7L25 9ZM0.292893 7.29289C-0.0976314 7.68342 -0.0976315 8.31658 0.292892 8.7071L6.65685 15.0711C7.04738 15.4616 7.68054 15.4616 8.07107 15.0711C8.46159 14.6805 8.46159 14.0474 8.07107 13.6569L2.41421 8L8.07107 2.34314C8.46159 1.95262 8.46159 1.31945 8.07107 0.92893C7.68054 0.538406 7.04738 0.538406 6.65686 0.92893L0.292893 7.29289ZM25 7L1 7L1 9L25 9L25 7Z"
		     fill="#333333"
		     fill-opacity="0.5"
		  />

		</symbol>
		<symbol id="nav-next-dark-arrow">
		 	<path
         d="M1 9C0.447715 9 4.82821e-08 8.55228 0 8C1.13222e-08 7.44771 0.447715 7 1 7L1 9ZM25.7071 7.29289C26.0976 7.68342 26.0976 8.31658 25.7071 8.7071L19.3431 15.0711C18.9526 15.4616 18.3195 15.4616 17.9289 15.0711C17.5384 14.6805 17.5384 14.0474 17.9289 13.6569L23.5858 8L17.9289 2.34314C17.5384 1.95262 17.5384 1.31945 17.9289 0.92893C18.3195 0.538406 18.9526 0.538406 19.3431 0.92893L25.7071 7.29289ZM1 7L25 7L25 9L1 9L1 7Z"
         fill="#333333"
         fill-opacity="0.5"
      />
		
		</symbol>

		<symbol id="nav-prev-white-arrow">
		 	<path
        d="M31 9C31.5523 9 32 8.55228 32 8C32 7.44771 31.5523 7 31 7L31 9ZM0.292893 7.29289C-0.0976314 7.68341 -0.0976315 8.31658 0.292892 8.7071L6.65685 15.0711C7.04738 15.4616 7.68054 15.4616 8.07107 15.0711C8.46159 14.6805 8.46159 14.0474 8.07107 13.6569L2.41421 8L8.07107 2.34314C8.46159 1.95262 8.46159 1.31945 8.07107 0.92893C7.68054 0.538405 7.04738 0.538405 6.65686 0.92893L0.292893 7.29289ZM31 7L1 7L1 9L31 9L31 7Z"
        fill="white"
      />

		</symbol>
		<symbol id="nav-next-white-arrow">
		 <path
        d="M1 9C0.447715 9 4.8282e-08 8.55228 0 8C1.13222e-08 7.44771 0.447715 7 1 7L1 9ZM31.7071 7.29289C32.0976 7.68341 32.0976 8.31658 31.7071 8.7071L25.3431 15.0711C24.9526 15.4616 24.3195 15.4616 23.9289 15.0711C23.5384 14.6805 23.5384 14.0474 23.9289 13.6569L29.5858 8L23.9289 2.34314C23.5384 1.95262 23.5384 1.31945 23.9289 0.92893C24.3195 0.538405 24.9526 0.538405 25.3431 0.92893L31.7071 7.29289ZM1 7L31 7L31 9L1 9L1 7Z"
        fill="white"
       />
		
		</symbol>


		<symbol id="telegram"  viewBox="0 0 40 40"> 
		<path
    fill-rule="evenodd"
    clip-rule="evenodd"
    d="M20 40C31.0457 40 40 31.0457 40 20C40 8.9543 31.0457 0 20 0C8.9543 0 0 8.9543 0 20C0 31.0457 8.9543 40 20 40ZM27.4435 28.7916L30.9339 11.8742C31.0227 11.6083 31.0446 11.3233 30.9978 11.0461C30.951 10.7689 30.837 10.5086 30.6664 10.2898C30.5003 10.1392 30.2961 10.0412 30.0779 10.0073C29.8598 9.97346 29.6368 10.0051 29.4355 10.0986L9.06373 18.2367C8.37991 18.5204 8.02314 18.8409 7.98746 19.1985C7.95179 19.552 8.22531 19.8171 8.80804 19.9938L14.0407 21.6954L26.177 13.7916C26.3239 13.6913 26.4904 13.626 26.6646 13.6005C26.8192 13.5882 26.9202 13.6252 26.9738 13.7115C27.0273 13.7978 26.9857 13.8964 26.8489 14.0012L17.0495 23.2059L16.6392 28.7916C16.871 28.8009 17.101 28.7456 17.3052 28.6313C17.4514 28.5175 17.5886 28.3918 17.7155 28.2552L20.2783 25.7028L25.5645 29.7472C25.7334 29.8759 25.9299 29.9599 26.1371 29.9921C26.3443 30.0244 26.5559 30.0038 26.7537 29.9322C26.943 29.8069 27.1031 29.6396 27.2223 29.4423C27.3416 29.2451 27.4172 29.0228 27.4435 28.7916Z"
    fill="#008cff"
    fill-opacity="0.7"
    /></symbol>

		<symbol id="whatsapp">
		 <path
      d="M20.1365 0H20.1264C9.02643 0 0 9.02895 0 20.1314C0 24.5352 1.41927 28.6168 3.83252 31.931L1.32364 39.4098L9.06166 36.9361C12.2449 39.0449 16.0422 40.2629 20.1365 40.2629C31.2364 40.2629 40.2629 31.2314 40.2629 20.1314C40.2629 9.03146 31.2364 0 20.1365 0ZM31.8504 28.4281C31.3648 29.7996 29.4372 30.937 27.8996 31.2691C26.8478 31.4931 25.4738 31.6718 20.8486 29.7543C14.9325 27.3033 11.1226 21.2915 10.8257 20.9015C10.5413 20.5114 8.43507 17.7182 8.43507 14.8293C8.43507 11.9405 9.90215 10.5338 10.4935 9.92983C10.9792 9.43409 11.7819 9.20761 12.5519 9.20761C12.8011 9.20761 13.025 9.2202 13.2264 9.23026C13.8177 9.25543 14.1147 9.29066 14.5047 10.2243C14.9904 11.3944 16.1731 14.2833 16.314 14.5802C16.4574 14.8771 16.6009 15.2798 16.3996 15.6698C16.2108 16.0724 16.0448 16.2511 15.7478 16.5933C15.4509 16.9356 15.169 17.1973 14.8721 17.5647C14.6003 17.8843 14.2933 18.2265 14.6356 18.8179C14.9778 19.3966 16.1605 21.3267 17.9019 22.8769C20.149 24.8774 21.9709 25.5166 22.6227 25.7884C23.1084 25.9897 23.6871 25.9419 24.042 25.5644C24.4924 25.0787 25.0485 24.2735 25.6147 23.4808C26.0174 22.9121 26.5257 22.8416 27.0592 23.0429C27.6027 23.2317 30.479 24.6535 31.0704 24.9479C31.6617 25.2448 32.0518 25.3857 32.1952 25.6349C32.3361 25.884 32.3361 27.0541 31.8504 28.4281Z"
      fill="#0bf659"
      fill-opacity="0.7"
    /></symbol>

		<symbol id="status">
		 <path
      d="M6.57216 13C6.2614 13 5.95124 12.8783 5.71392 12.6343L0 6.7587L1.71648 4.99304L6.57216 9.98608L16.2835 0L18 1.76566L7.4304 12.6343C7.19308 12.8783 6.88292 13 6.57216 13Z"
      fill="#E52C2D"
    /></symbol>

		<symbol id="status-x"> 
			<path
       fill-rule="evenodd"
       clip-rule="evenodd"
       d="M7.10556 8.87431L12.4435 14.2122L14.2112 12.4444L8.87333 7.10654L14.2121 1.76777L12.4443 0L7.10556 5.33877L1.76679 0L-0.000976562 1.76777L5.3378 7.10654L-0.000106812 12.4444L1.76766 14.2122L7.10556 8.87431Z"
       fill="#333333"
       fill-opacity="0.5"
    	/>
		</symbol>

		<symbol id="link-white-arrow">
		
		<path d="M1 3.5C0.723858 3.5 0.5 3.72386 0.5 4C0.5 4.27614 0.723858 4.5 1 4.5L1 3.5ZM31.3536 4.35356C31.5488 4.15829 31.5488 3.84171 31.3536 3.64645L28.1716 0.464468C27.9763 0.269206 27.6597 0.269206 27.4645 0.464468C27.2692 0.659731 27.2692 0.976313 27.4645 1.17158L30.2929 4L27.4645 6.82843C27.2692 7.02369 27.2692 7.34027 27.4645 7.53554C27.6597 7.7308 27.9763 7.7308 28.1716 7.53554L31.3536 4.35356ZM1 4.5L31 4.5L31 3.5L1 3.5L1 4.5Z" fill="white"/>

		</symbol>
		<symbol id="link-grey-arrow">
		
			
			<path d="M1 3.5C0.723858 3.5 0.5 3.72386 0.5 4C0.5 4.27614 0.723858 4.5 1 4.5L1 3.5ZM31.3536 4.35356C31.5488 4.15829 31.5488 3.84171 31.3536 3.64645L28.1716 0.464468C27.9763 0.269206 27.6597 0.269206 27.4645 0.464468C27.2692 0.659731 27.2692 0.976313 27.4645 1.17158L30.2929 4L27.4645 6.82843C27.2692 7.02369 27.2692 7.34027 27.4645 7.53554C27.6597 7.7308 27.9763 7.7308 28.1716 7.53554L31.3536 4.35356ZM1 4.5L31 4.5L31 3.5L1 3.5L1 4.5Z" fill="#333333"/>					
		</symbol>

		<symbol id="dropdown-arrow">
		
				<path fill-rule="evenodd" clip-rule="evenodd" d="M11.8798 0.721649C11.9599 0.801833 12 0.894043 12 0.998282C12 1.10252 11.9599 1.19473 11.8798 1.27491L6.27655 6.87972C6.19639 6.95991 6.10421 7 6 7C5.89579 7 5.80361 6.95991 5.72345 6.87972L0.12024 1.27491C0.0400798 1.19473 0 1.10252 0 0.998282C0 0.894043 0.0400798 0.801833 0.12024 0.721649L0.721443 0.120275C0.801604 0.0400912 0.893787 0 0.997996 0C1.1022 0 1.19439 0.0400912 1.27455 0.120275L6 4.84708L10.7255 0.120275C10.8056 0.0400912 10.8978 0 11.002 0C11.1062 0 11.1984 0.0400912 11.2786 0.120275L11.8798 0.721649Z" fill="#333333"/>


		
		</symbol>

		<symbol id="planet">
		 <path
      d="M10 0C8.02219 0 6.08879 0.58649 4.4443 1.6853C2.79981 2.78412 1.51809 4.3459 0.761209 6.17316C0.00433284 8.00042 -0.1937 10.0111 0.192152 11.9509C0.578004 13.8907 1.53041 15.6725 2.92894 17.0711C4.32746 18.4696 6.10929 19.422 8.0491 19.8078C9.98891 20.1937 11.9996 19.9957 13.8268 19.2388C15.6541 18.4819 17.2159 17.2002 18.3147 15.5557C19.4135 13.9112 20 11.9778 20 10C19.997 7.34874 18.9425 4.80692 17.0678 2.93219C15.1931 1.05747 12.6513 0.0029546 10 0ZM1.39535 10C1.39705 9.03661 1.56186 8.08046 1.88279 7.17209C2.45954 11.3674 6.13954 11.7219 6.29768 12.3907C6.3849 13.144 6.40668 13.9034 6.36279 14.6605C6.42791 15.9535 8.21395 15.9721 8.90233 16.9953C9.14427 17.48 9.2384 18.0251 9.17303 18.5628C7.04523 18.355 5.0707 17.3635 3.63326 15.781C2.19581 14.1984 1.39816 12.1379 1.39535 10ZM12.3349 18.2791C12.9684 16.2949 14.8707 15.6223 15.0642 14.4753C15.2195 13.5553 14.0102 13.08 12.9247 12.9507C11.8391 12.8214 12.0056 11.6995 11.24 10.9042C10.4744 10.1088 9.97582 10.1526 8.90047 10.2874C7.82512 10.4223 6.90512 10.334 6.60465 9.67255C6.30419 9.01116 6.68744 8.69488 5.89675 7.87535C5.79 7.77306 5.71332 7.64348 5.67501 7.50069C5.63671 7.3579 5.63825 7.20734 5.67947 7.06536C5.7207 6.92338 5.80002 6.7954 5.90884 6.69532C6.01766 6.59525 6.15182 6.52689 6.29675 6.49767C6.85489 6.36279 7.84744 7.33488 8.42884 7.22046C10.1795 6.85953 8.08093 3.4307 10.7116 2.5693C11.1946 2.40435 11.5928 2.0553 11.8195 1.59814C13.2951 1.92031 14.6595 2.62626 15.7749 3.64465C16.0995 4.39037 16.2156 5.21022 16.1107 6.01674C15.76 7.10232 14.8763 7.88372 15.84 9.65953C16.8456 11.5144 17.466 11.7665 17.9181 11.2558C18.0949 11.0617 18.3161 10.9133 18.5628 10.8233C18.3948 12.5481 17.7106 14.1823 16.5996 15.5124C15.4885 16.8424 14.0023 17.8066 12.3349 18.2791Z"
     fill="#333333"
     fill-opacity="0.4"
      />
		</symbol>

		

		<symbol id="date">
		<path
     d="M3.30275 15.962C3.52852 16.0525 3.79101 15.977 3.92288 15.7817L9.92281 6.84418C10.02 6.69953 10.0258 6.51687 9.93794 6.36765C9.85005 6.21796 9.68208 6.12503 9.49995 6.12503H5.49559L6.98484 0.584117C7.04491 0.360273 6.92331 0.129086 6.69725 0.0379918C6.47265 -0.0526333 6.20849 0.0233355 6.07712 0.218336L0.0771892 9.15584C-0.0199764 9.3005 -0.0258431 9.48315 0.0620559 9.63237C0.149955 9.78206 0.31792 9.875 0.500051 9.875H4.50441L3.01516 15.4159C2.95509 15.6398 3.07666 15.8709 3.30275 15.962Z"
     fill="#333333"
     fill-opacity="0.3"
     />
		</symbol>

		<symbol id="pagination_arrow">
		 <path
       d="M1 9C0.447715 9 4.82823e-08 8.55228 0 8C-4.82823e-08 7.44772 0.447715 7 1 7L1 9ZM21.7071 7.29289C22.0976 7.68342 22.0976 8.31658 21.7071 8.7071L15.3431 15.0711C14.9526 15.4616 14.3195 15.4616 13.9289 15.0711C13.5384 14.6805 13.5384 14.0474 13.9289 13.6569L19.5858 8L13.9289 2.34314C13.5384 1.95262 13.5384 1.31946 13.9289 0.928931C14.3195 0.538407 14.9526 0.538407 15.3431 0.928931L21.7071 7.29289ZM1 7L21 7L21 9L1 9L1 7Z"
       fill="#2e2e2e"
       fill-opacity="0.4"
        />
		</symbol>

	
</svg>