<svg width="40" height="40" viewBox="0 0 40 40" fill="none" xmlns="http://www.w3.org/2000/svg">
<path fill-rule="evenodd" clip-rule="evenodd" d="M20 40C31.0457 40 40 31.0457 40 20C40 8.9543 31.0457 0 20 0C8.9543 0 0 8.9543 0 20C0 31.0457 8.9543 40 20 40ZM27.4445 28.7916L30.9349 11.8742C31.0236 11.6083 31.0456 11.3233 30.9988 11.0461C30.952 10.7689 30.8379 10.5086 30.6673 10.2898C30.5013 10.1392 30.2971 10.0412 30.0789 10.0073C29.8607 9.97346 29.6378 10.0051 29.4365 10.0986L9.0647 18.2367C8.38089 18.5204 8.02412 18.8409 7.98844 19.1985C7.95276 19.552 8.22629 19.8171 8.80902 19.9938L14.0417 21.6954L26.1779 13.7916C26.3248 13.6913 26.4914 13.626 26.6655 13.6005C26.8201 13.5882 26.9212 13.6252 26.9747 13.7115C27.0283 13.7978 26.9866 13.8964 26.8499 14.0012L17.0505 23.2059L16.6402 28.7916C16.872 28.8009 17.102 28.7456 17.3062 28.6313C17.4524 28.5175 17.5896 28.3918 17.7165 28.2552L20.2793 25.7028L25.5655 29.7472C25.7343 29.8759 25.9309 29.9599 26.1381 29.9921C26.3453 30.0244 26.5569 30.0038 26.7547 29.9322C26.944 29.8069 27.104 29.6396 27.2233 29.4423C27.3426 29.2451 27.4181 29.0228 27.4445 28.7916Z" fill="#333333" fill-opacity="0.7"/>
</svg>
