<svg width="41" height="41" viewBox="0 0 41 41" fill="none" xmlns="http://www.w3.org/2000/svg">
<path d="M20.1365 0H20.1264C9.02643 0 0 9.02895 0 20.1314C0 24.5352 1.41927 28.6168 3.83252 31.931L1.32364 39.4098L9.06166 36.9361C12.2449 39.0449 16.0422 40.2629 20.1365 40.2629C31.2364 40.2629 40.2629 31.2314 40.2629 20.1314C40.2629 9.03146 31.2364 0 20.1365 0ZM31.8504 28.4281C31.3648 29.7996 29.4372 30.937 27.8996 31.2691C26.8478 31.4931 25.4738 31.6718 20.8486 29.7543C14.9325 27.3033 11.1226 21.2915 10.8257 20.9015C10.5413 20.5114 8.43507 17.7182 8.43507 14.8293C8.43507 11.9405 9.90215 10.5338 10.4935 9.92983C10.9792 9.43409 11.7819 9.20761 12.5519 9.20761C12.8011 9.20761 13.025 9.2202 13.2264 9.23026C13.8177 9.25543 14.1147 9.29066 14.5047 10.2243C14.9904 11.3944 16.1731 14.2833 16.314 14.5802C16.4574 14.8771 16.6009 15.2798 16.3996 15.6698C16.2108 16.0724 16.0448 16.2511 15.7478 16.5933C15.4509 16.9356 15.169 17.1973 14.8721 17.5647C14.6003 17.8843 14.2933 18.2265 14.6356 18.8179C14.9778 19.3966 16.1605 21.3267 17.9019 22.8769C20.149 24.8774 21.9709 25.5166 22.6227 25.7884C23.1084 25.9897 23.6871 25.9419 24.042 25.5644C24.4924 25.0787 25.0485 24.2735 25.6147 23.4808C26.0174 22.9121 26.5257 22.8416 27.0592 23.0429C27.6027 23.2317 30.479 24.6535 31.0704 24.9479C31.6617 25.2448 32.0518 25.3857 32.1952 25.6349C32.3361 25.884 32.3361 27.0541 31.8504 28.4281Z" fill="#333333" fill-opacity="0.7"/>
</svg>
