<svg width="108" height="108" viewBox="0 0 108 108" fill="none" xmlns="http://www.w3.org/2000/svg">
<path fill-rule="evenodd" clip-rule="evenodd" d="M70.7464 102.443H70.7328C70.1532 102.443 69.6451 102.669 69.2218 102.993C69.1403 103.057 69.0383 103.093 68.9652 103.165C68.559 103.566 68.3245 104.115 68.2735 104.713C68.2684 104.78 68.2344 104.838 68.2344 104.907C68.2344 105.211 68.3075 105.495 68.4111 105.762C68.4451 105.849 68.4876 105.925 68.5301 106.006C68.6219 106.182 68.7324 106.344 68.8649 106.493C68.9295 106.566 68.9873 106.642 69.0604 106.707C69.2609 106.886 69.4819 107.043 69.7334 107.151H69.7351C70.0462 107.287 70.3861 107.369 70.7464 107.369C71.863 107.369 72.7757 106.64 73.1004 105.645C73.187 105.418 73.2465 105.181 73.2482 104.92C73.2482 104.915 73.2516 104.912 73.2516 104.907C73.2516 103.545 72.1299 102.443 70.7464 102.443ZM105.793 73.078C105.55 72.9778 105.28 72.9394 105.003 72.921C104.954 72.9193 104.915 72.8926 104.864 72.8926H104.85C103.467 72.8926 102.352 73.9952 102.352 75.3568C102.352 75.6876 102.423 76 102.544 76.284C102.629 76.4879 102.768 76.6516 102.899 76.8237C102.953 76.8888 102.984 76.969 103.042 77.0292C103.458 77.4636 104.032 77.7309 104.675 77.781C104.678 77.781 104.682 77.7827 104.685 77.7843V77.7827C104.746 77.7877 104.801 77.8177 104.864 77.8177C106.247 77.8177 107.369 76.7151 107.369 75.3568C107.369 74.321 106.714 73.4422 105.793 73.078ZM19.5706 29.5508H19.557C18.1735 29.5508 17.0586 30.6534 17.0586 32.0134C17.0586 33.3716 18.1871 34.4759 19.5706 34.4759C20.9524 34.4759 22.0758 33.3716 22.0758 32.0134C22.0758 30.6534 20.9524 29.5508 19.5706 29.5508ZM19.5706 87.668H19.557C18.1735 87.668 17.0586 88.7693 17.0586 90.1314C17.0586 91.4901 18.1871 92.5931 19.5706 92.5931C20.9524 92.5931 22.0758 91.4901 22.0758 90.1314C22.0758 88.7693 20.9524 87.668 19.5706 87.668ZM36.6331 49.2513C38.0166 49.2513 39.1383 48.147 39.1383 46.7887C39.1383 45.4271 38.0166 44.3262 36.6331 44.3262H36.6212C35.236 44.3262 34.1211 45.4271 34.1211 46.7887C34.1211 48.147 35.2496 49.2513 36.6331 49.2513ZM19.5706 14.7754H19.557C18.1735 14.7754 17.0586 15.878 17.0586 17.238C17.0586 18.5979 18.1871 19.7005 19.5706 19.7005C20.9524 19.7005 22.0758 18.5979 22.0758 17.238C22.0758 15.878 20.9524 14.7754 19.5706 14.7754ZM19.5706 58.1172H19.557C18.1735 58.1172 17.0586 59.2198 17.0586 60.5798C17.0586 61.9397 18.1871 63.0423 19.5706 63.0423C20.9524 63.0423 22.0758 61.9397 22.0758 60.5798C22.0758 59.2198 20.9524 58.1172 19.5706 58.1172ZM19.5706 72.8926H19.557C18.1735 72.8926 17.0586 73.9952 17.0586 75.3568C17.0586 76.7151 18.1871 77.8177 19.5706 77.8177C20.9524 77.8177 22.0758 76.7151 22.0758 75.3568C22.0758 73.9952 20.9524 72.8926 19.5706 72.8926ZM36.6331 19.7005C38.0166 19.7005 39.1383 18.5979 39.1383 17.238C39.1383 15.878 38.0166 14.7754 36.6331 14.7754H36.6212C35.236 14.7754 34.1211 15.878 34.1211 17.238C34.1211 18.5979 35.2496 19.7005 36.6331 19.7005ZM36.6331 34.4759C38.0166 34.4759 39.1383 33.3716 39.1383 32.0134C39.1383 30.6534 38.0166 29.5508 36.6331 29.5508H36.6212C35.236 29.5508 34.1211 30.6534 34.1211 32.0134C34.1211 33.3716 35.2496 34.4759 36.6331 34.4759ZM36.6331 4.92516C38.0166 4.92516 39.1383 3.82251 39.1383 2.46258C39.1383 1.10265 38.0166 0 36.6331 0H36.6212C35.236 0 34.1211 1.10265 34.1211 2.46258C34.1211 3.82251 35.2496 4.92516 36.6331 4.92516ZM19.5706 44.3262H19.557C18.1735 44.3262 17.0586 45.4271 17.0586 46.7887C17.0586 48.147 18.1871 49.2513 19.5706 49.2513C20.9524 49.2513 22.0758 48.147 22.0758 46.7887C22.0758 45.4271 20.9524 44.3262 19.5706 44.3262ZM2.51373 58.1172H2.49843C1.11495 58.1172 0 59.2198 0 60.5798C0 61.9397 1.13024 63.0423 2.51373 63.0423C3.89721 63.0423 5.01725 61.9397 5.01725 60.5798C5.01725 59.2198 3.89721 58.1172 2.51373 58.1172ZM2.51373 44.3262H2.49843C1.11495 44.3262 0 45.4271 0 46.7887C0 48.147 1.13024 49.2513 2.51373 49.2513C3.89721 49.2513 5.01725 48.147 5.01725 46.7887C5.01725 45.4271 3.89721 44.3262 2.51373 44.3262ZM2.51288 72.8925H2.49758C2.18304 72.8925 1.88891 72.9627 1.61518 73.0696C1.47576 73.1214 1.36015 73.2049 1.23434 73.2801C1.12892 73.3452 1.02181 73.4037 0.926602 73.4856C0.761684 73.6176 0.63247 73.7713 0.506656 73.9417C0.482853 73.9768 0.459051 74.0085 0.435248 74.0469C0.299233 74.2541 0.198922 74.4713 0.130914 74.7152L0.129214 74.7169V74.7185C0.0714079 74.9257 0 75.1295 0 75.3567C0 76.3257 0.586565 77.146 1.41796 77.547V77.5487H1.41966C1.75119 77.7074 2.10823 77.8126 2.49928 77.8143C2.50438 77.8143 2.50778 77.8176 2.51288 77.8176C3.89683 77.8176 5.01725 76.715 5.01725 75.3567C5.01725 75.0159 4.94755 74.6918 4.82003 74.3978C4.44089 73.514 3.54999 72.8925 2.51288 72.8925ZM87.805 44.3262H87.7914C86.4079 44.3262 85.293 45.4271 85.293 46.7887C85.293 48.147 86.4215 49.2513 87.805 49.2513C89.1885 49.2513 90.3102 48.147 90.3102 46.7887C90.3102 45.4271 89.1885 44.3262 87.805 44.3262ZM2.51288 29.5508H2.49758C2.21194 29.5508 1.94842 29.6126 1.70019 29.7095C1.47406 29.7863 1.27684 29.9016 1.08642 30.0353C1.08472 30.0353 1.08472 30.0353 1.08302 30.0369C0.442049 30.483 0 31.1814 0 32.0134C0 32.1186 0.0476053 32.2072 0.0612068 32.3107H0.0595066C0.0595066 32.3141 0.0612068 32.3158 0.062907 32.3174C0.141116 32.9172 0.414846 33.4468 0.851794 33.8311C0.911301 33.8845 0.986109 33.9146 1.04902 33.9614C1.22073 34.085 1.38565 34.2136 1.58798 34.2922C1.87191 34.4074 2.18134 34.4759 2.51288 34.4759C3.54999 34.4759 4.44089 33.8561 4.82003 32.9707C4.94755 32.6766 5.01725 32.3525 5.01725 32.0134C5.01725 31.6742 4.94755 31.3501 4.82003 31.0561C4.44089 30.1706 3.54999 29.5508 2.51288 29.5508ZM87.805 58.1172H87.7914C86.4079 58.1172 85.293 59.2198 85.293 60.5798C85.293 61.9397 86.4215 63.0423 87.805 63.0423C89.1885 63.0423 90.3102 61.9397 90.3102 60.5798C90.3102 59.2198 89.1885 58.1172 87.805 58.1172ZM87.805 29.5508H87.7914C86.4079 29.5508 85.293 30.6534 85.293 32.0134C85.293 33.3716 86.4215 34.4759 87.805 34.4759C89.1885 34.4759 90.3102 33.3716 90.3102 32.0134C90.3102 30.6534 89.1885 29.5508 87.805 29.5508ZM87.805 87.668H87.7914C86.4079 87.668 85.293 88.7693 85.293 90.1314C85.293 91.4901 86.4215 92.5931 87.805 92.5931C89.1885 92.5931 90.3102 91.4901 90.3102 90.1314C90.3102 88.7693 89.1885 87.668 87.805 87.668ZM87.805 72.8926H87.7914C86.4079 72.8926 85.293 73.9952 85.293 75.3568C85.293 76.7151 86.4215 77.8177 87.805 77.8177C89.1885 77.8177 90.3102 76.7151 90.3102 75.3568C90.3102 73.9952 89.1885 72.8926 87.805 72.8926ZM70.7473 4.92516C72.1303 4.92516 73.2516 3.82251 73.2516 2.46258C73.2516 2.46258 73.2499 2.46091 73.2499 2.45924C73.2499 2.05995 73.131 1.69741 72.9577 1.36327C72.9407 1.33153 72.9186 1.30814 72.8999 1.27807C72.7181 0.96231 72.4701 0.700014 72.1693 0.489508H72.1676C71.7582 0.203823 71.2858 0 70.7473 0H70.7337C69.3506 0 68.2344 1.10265 68.2344 2.46258C68.2344 3.82251 69.3642 4.92516 70.7473 4.92516ZM87.805 14.7754H87.7914C86.4079 14.7754 85.293 15.878 85.293 17.238C85.293 18.5979 86.4215 19.7005 87.805 19.7005C89.1885 19.7005 90.3102 18.5979 90.3102 17.238C90.3102 15.878 89.1885 14.7754 87.805 14.7754ZM70.7464 29.5508H70.7328C69.3493 29.5508 68.2344 30.6534 68.2344 32.0134C68.2344 33.3716 69.3629 34.4759 70.7464 34.4759C72.1299 34.4759 73.2516 33.3716 73.2516 32.0134C73.2516 30.6534 72.1299 29.5508 70.7464 29.5508ZM70.7464 72.8926H70.7328C69.3493 72.8926 68.2344 73.9952 68.2344 75.3568C68.2344 76.7151 69.3629 77.8177 70.7464 77.8177C72.1299 77.8177 73.2516 76.7151 73.2516 75.3568C73.2516 73.9952 72.1299 72.8926 70.7464 72.8926ZM70.7464 58.1172H70.7328C69.3493 58.1172 68.2344 59.2198 68.2344 60.5798C68.2344 61.9397 69.3629 63.0423 70.7464 63.0423C72.1299 63.0423 73.2516 61.9397 73.2516 60.5798C73.2516 59.2198 72.1299 58.1172 70.7464 58.1172ZM70.7464 44.3262H70.7328C69.3493 44.3262 68.2344 45.4271 68.2344 46.7887C68.2344 48.147 69.3629 49.2513 70.7464 49.2513C72.1299 49.2513 73.2516 48.147 73.2516 46.7887C73.2516 45.4271 72.1299 44.3262 70.7464 44.3262ZM70.7464 87.668H70.7328C69.3493 87.668 68.2344 88.7693 68.2344 90.1314C68.2344 91.4901 69.3629 92.5931 70.7464 92.5931C72.1299 92.5931 73.2516 91.4901 73.2516 90.1314C73.2516 88.7693 72.1299 87.668 70.7464 87.668ZM36.6331 63.0423C38.0166 63.0423 39.1383 61.9397 39.1383 60.5798C39.1383 59.2198 38.0166 58.1172 36.6331 58.1172H36.6212C35.236 58.1172 34.1211 59.2198 34.1211 60.5798C34.1211 61.9397 35.2496 63.0423 36.6331 63.0423ZM38.4041 103.165C38.3293 103.092 38.2274 103.055 38.1441 102.993C37.7209 102.669 37.2127 102.443 36.6331 102.443H36.6195C35.236 102.443 34.1211 103.545 34.1211 104.907C34.1211 105.575 34.3981 106.177 34.84 106.621C34.8417 106.623 34.8417 106.625 34.8434 106.625C35.2989 107.083 35.9312 107.369 36.6331 107.369C36.7657 107.369 36.8796 107.315 37.007 107.295C37.0087 107.295 37.0104 107.293 37.0121 107.293C37.6036 107.203 38.1203 106.936 38.4959 106.513C38.5571 106.448 38.5928 106.367 38.6455 106.296C38.7593 106.137 38.88 105.986 38.9548 105.804C39.067 105.532 39.1333 105.234 39.1349 104.917C39.1349 104.913 39.1383 104.912 39.1383 104.907C39.1383 104.282 38.8817 103.727 38.4925 103.292C38.4568 103.252 38.4415 103.2 38.4041 103.165ZM103.887 34.2822C104.188 34.4075 104.518 34.4759 104.864 34.4759C105.23 34.4759 105.572 34.3908 105.885 34.2521C105.895 34.2471 105.902 34.2388 105.912 34.2338C106.218 34.0935 106.481 33.8964 106.704 33.6526C107.109 33.2167 107.369 32.6488 107.369 32.0142C107.369 30.6547 106.247 29.5508 104.864 29.5508H104.851C103.467 29.5508 102.352 30.6547 102.352 32.0142C102.352 33.033 102.986 33.9081 103.887 34.2822ZM104.864 49.2513C106.247 49.2513 107.369 48.147 107.369 46.7887C107.369 45.4271 106.247 44.3262 104.864 44.3262H104.851C103.467 44.3262 102.352 45.4271 102.352 46.7887C102.352 48.147 103.479 49.2513 104.864 49.2513ZM104.864 63.0423C106.247 63.0423 107.369 61.9397 107.369 60.5798C107.369 59.2198 106.247 58.1172 104.864 58.1172H104.851C103.467 58.1172 102.352 59.2198 102.352 60.5798C102.352 61.9397 103.479 63.0423 104.864 63.0423ZM53.6839 29.5508H53.672C52.2885 29.5508 51.1719 30.6534 51.1719 32.0134C51.1719 33.3716 52.3004 34.4759 53.6839 34.4759C55.0674 34.4759 56.1891 33.3716 56.1891 32.0134C56.1891 30.6534 55.0674 29.5508 53.6839 29.5508ZM53.6839 14.7754H53.672C52.2885 14.7754 51.1719 15.878 51.1719 17.238C51.1719 18.5979 52.3004 19.7005 53.6839 19.7005C55.0674 19.7005 56.1891 18.5979 56.1891 17.238C56.1891 15.878 55.0674 14.7754 53.6839 14.7754ZM53.6839 0H53.672C52.2885 0 51.1719 1.10265 51.1719 2.46258C51.1719 3.82251 52.3004 4.92516 53.6839 4.92516C55.0674 4.92516 56.1891 3.82251 56.1891 2.46258C56.1891 1.10265 55.0674 0 53.6839 0ZM36.6331 92.5931C38.0166 92.5931 39.1383 91.4901 39.1383 90.1314C39.1383 88.7693 38.0166 87.668 36.6331 87.668H36.6212C35.236 87.668 34.1211 88.7693 34.1211 90.1314C34.1211 91.4901 35.2496 92.5931 36.6331 92.5931ZM36.6331 77.8177C38.0166 77.8177 39.1383 76.7151 39.1383 75.3568C39.1383 73.9952 38.0166 72.8926 36.6331 72.8926H36.6212C35.236 72.8926 34.1211 73.9952 34.1211 75.3568C34.1211 76.7151 35.2496 77.8177 36.6331 77.8177ZM53.6839 44.3262H53.672C52.2885 44.3262 51.1719 45.4271 51.1719 46.7887C51.1719 48.147 52.3004 49.2513 53.6839 49.2513C55.0674 49.2513 56.1891 48.147 56.1891 46.7887C56.1891 45.4271 55.0674 44.3262 53.6839 44.3262ZM70.7464 14.7754H70.7328C69.3493 14.7754 68.2344 15.878 68.2344 17.238C68.2344 18.5979 69.3629 19.7005 70.7464 19.7005C72.1299 19.7005 73.2516 18.5979 73.2516 17.238C73.2516 15.878 72.1299 14.7754 70.7464 14.7754ZM53.6839 87.668H53.672C52.2885 87.668 51.1719 88.7693 51.1719 90.1314C51.1719 91.4901 52.3004 92.5931 53.6839 92.5931C55.0674 92.5931 56.1891 91.4901 56.1891 90.1314C56.1891 88.7693 55.0674 87.668 53.6839 87.668ZM53.6839 102.443H53.672C52.2885 102.443 51.1719 103.546 51.1719 104.907C51.1719 106.267 52.3004 107.369 53.6839 107.369C55.0674 107.369 56.1891 106.267 56.1891 104.907C56.1891 103.546 55.0674 102.443 53.6839 102.443ZM53.6839 72.8926H53.672C52.2885 72.8926 51.1719 73.9952 51.1719 75.3568C51.1719 76.7151 52.3004 77.8177 53.6839 77.8177C55.0674 77.8177 56.1891 76.7151 56.1891 75.3568C56.1891 73.9952 55.0674 72.8926 53.6839 72.8926ZM53.6839 58.1172H53.672C52.2885 58.1172 51.1719 59.2198 51.1719 60.5798C51.1719 61.9397 52.3004 63.0423 53.6839 63.0423C55.0674 63.0423 56.1891 61.9397 56.1891 60.5798C56.1891 59.2198 55.0674 58.1172 53.6839 58.1172Z" fill="#E52C2D"/>
</svg>
