<svg width="18" height="18" viewBox="0 0 18 18" fill="none" xmlns="http://www.w3.org/2000/svg">
<g clip-path="url(#clip0_2082_15659)">
<path d="M12.9994 1.00333L10.9246 1C8.59358 1 7.08719 2.54552 7.08719 4.93762V6.75313H5.00105C4.82078 6.75313 4.6748 6.89927 4.6748 7.07954V9.71001C4.6748 9.89028 4.82095 10.0363 5.00105 10.0363H7.08719V16.6738C7.08719 16.854 7.23317 17 7.41343 17H10.1353C10.3155 17 10.4615 16.8539 10.4615 16.6738V10.0363H12.9007C13.0809 10.0363 13.2269 9.89028 13.2269 9.71001L13.2279 7.07954C13.2279 6.99299 13.1935 6.91009 13.1324 6.84884C13.0713 6.78758 12.9881 6.75313 12.9015 6.75313H10.4615V5.2141C10.4615 4.47438 10.6378 4.09886 11.6014 4.09886L12.9991 4.09836C13.1792 4.09836 13.3251 3.95222 13.3251 3.77211V1.32958C13.3251 1.14964 13.1793 1.00366 12.9994 1.00333Z" fill="white"/>
</g>
<defs>
<clipPath id="clip0_2082_15659">
<rect width="18" height="18" fill="white"/>
</clipPath>
</defs>
</svg>
