<svg width="18" height="18" viewBox="0 0 18 18" fill="none" xmlns="http://www.w3.org/2000/svg">
<g clip-path="url(#clip0_2082_15644)">
<path d="M12.3523 1H5.64775C3.08497 1 1 3.08497 1 5.64775V12.3523C1 14.915 3.08497 17 5.64775 17H12.3523C14.915 17 17 14.915 17 12.3523V5.64775C17 3.08497 14.915 1 12.3523 1ZM15.75 12.3523C15.75 14.2258 14.2258 15.75 12.3523 15.75H5.64775C3.77422 15.75 2.25 14.2258 2.25 12.3523V5.64775C2.25 3.77422 3.77422 2.25 5.64775 2.25H12.3523C14.2258 2.25 15.75 3.77422 15.75 5.64775V12.3523Z" fill="white"/>
<path d="M9 4.6875C6.62206 4.6875 4.6875 6.62206 4.6875 9C4.6875 11.3779 6.62206 13.3125 9 13.3125C11.3779 13.3125 13.3125 11.3779 13.3125 9C13.3125 6.62206 11.3779 4.6875 9 4.6875ZM9 12.0625C7.31134 12.0625 5.9375 10.6887 5.9375 9C5.9375 7.31134 7.31134 5.9375 9 5.9375C10.6887 5.9375 12.0625 7.31134 12.0625 9C12.0625 10.6887 10.6887 12.0625 9 12.0625Z" fill="white"/>
<path d="M13.375 5.25C13.7202 5.25 14 4.97018 14 4.625C14 4.27982 13.7202 4 13.375 4C13.0298 4 12.75 4.27982 12.75 4.625C12.75 4.97018 13.0298 5.25 13.375 5.25Z" fill="white"/>
</g>
<defs>
<clipPath id="clip0_2082_15644">
<rect width="16" height="16" fill="white" transform="translate(1 1)"/>
</clipPath>
</defs>
</svg>
