<svg width="18" height="18" viewBox="0 0 18 18" fill="none" xmlns="http://www.w3.org/2000/svg">
<path fill-rule="evenodd" clip-rule="evenodd" d="M15.4916 10.3585C16.0886 10.9307 16.7188 11.4692 17.2544 12.0992C17.4909 12.3791 17.7149 12.668 17.8862 12.9929C18.129 13.4548 17.9091 13.963 17.4873 13.9906L14.865 13.9894C14.1886 14.0445 13.6491 13.7772 13.1954 13.3233C12.8324 12.9602 12.4962 12.5739 12.1471 12.1986C12.0039 12.0452 11.8541 11.9008 11.6752 11.7868C11.3172 11.5586 11.0065 11.6285 10.8019 11.995C10.5935 12.3678 10.5463 12.7806 10.5258 13.1961C10.4977 13.8023 10.3111 13.9616 9.69083 13.9894C8.36525 14.0507 7.10722 13.8539 5.93854 13.1974C4.9082 12.6187 4.10921 11.8017 3.41377 10.8767C2.05975 9.07571 1.02284 7.09667 0.0909061 5.06218C-0.118865 4.60381 0.0345452 4.35776 0.549718 4.34905C1.40519 4.33273 2.26053 4.33389 3.11701 4.34789C3.46469 4.35288 3.69487 4.54865 3.82912 4.87111C4.29195 5.98833 4.85828 7.05127 5.56915 8.03652C5.75846 8.29883 5.95149 8.56114 6.22638 8.74576C6.53048 8.95019 6.76201 8.88243 6.90507 8.54987C6.99586 8.33901 7.0356 8.11188 7.05606 7.88603C7.12384 7.10903 7.13277 6.33337 7.01389 5.5591C6.94091 5.07588 6.66366 4.76306 6.1725 4.67162C5.92186 4.625 5.95918 4.53344 6.08054 4.393C6.29131 4.15078 6.48955 4 6.88473 4H9.84832C10.3149 4.0904 10.4185 4.29616 10.4824 4.75703L10.4849 7.98874C10.4798 8.16715 10.5757 8.69659 10.903 8.81468C11.165 8.89875 11.3377 8.69299 11.4949 8.5299C12.2045 7.79058 12.7109 6.91686 13.1633 6.01213C13.3641 5.61432 13.5367 5.20117 13.704 4.78838C13.828 4.48206 14.0225 4.33134 14.374 4.33802L17.2263 4.34051C17.3108 4.34051 17.3964 4.34173 17.4783 4.35549C17.959 4.4359 18.0907 4.63888 17.9422 5.09963C17.7083 5.82252 17.2532 6.42493 16.8083 7.03013C16.3326 7.67627 15.8239 8.30028 15.3522 8.95025C14.9188 9.54378 14.9532 9.84295 15.4916 10.3585Z" fill="white"/>
</svg>
