<svg width="50" height="50" viewBox="0 0 50 50" fill="none" xmlns="http://www.w3.org/2000/svg">
<path d="M5.51443 13.75C7.99094 9.46056 11.8136 6.10815 16.3896 4.21271C20.9656 2.31727 26.0392 1.98473 30.8234 3.26667C35.6077 4.54861 39.8352 7.37337 42.8505 11.3029C45.8657 15.2324 47.5 20.047 47.5 25C47.5 29.953 45.8657 34.7676 42.8505 38.6971C39.8352 42.6266 35.6077 45.4514 30.8234 46.7333C26.0392 48.0153 20.9656 47.6827 16.3896 45.7873C11.8136 43.8919 7.99094 40.5394 5.51443 36.25" stroke="#8DBB19"/>
<path d="M22 16V34M29 30.0181H19" stroke="#8DBB19"/>
<path d="M26 26.4902C26.6566 26.4902 27.3068 26.3609 27.9134 26.1096C28.52 25.8584 29.0712 25.4901 29.5355 25.0258C29.9998 24.5615 30.3681 24.0103 30.6194 23.4037C30.8707 22.797 31 22.1468 31 21.4902C31 20.8336 30.8707 20.1834 30.6194 19.5768C30.3681 18.9702 29.9998 18.419 29.5355 17.9547C29.0712 17.4904 28.52 17.1221 27.9134 16.8708C27.3068 16.6196 26.6566 16.4902 26 16.4902" stroke="#8DBB19"/>
<line x1="26" y1="16.5" x2="22" y2="16.5" stroke="#8DBB19"/>
<line x1="26" y1="26.5" x2="22" y2="26.5" stroke="#8DBB19"/>
</svg>
