<svg width="50" height="50" viewBox="0 0 50 50" fill="none" xmlns="http://www.w3.org/2000/svg">
<path d="M25 47.5C22.0453 47.5 19.1194 46.918 16.3896 45.7873C13.6598 44.6566 11.1794 42.9992 9.0901 40.9099C7.00078 38.8206 5.34344 36.3402 4.21271 33.6104C3.08198 30.8805 2.5 27.9547 2.5 25C2.5 22.0453 3.08198 19.1194 4.21271 16.3896C5.34344 13.6598 7.00078 11.1794 9.0901 9.09009C11.1794 7.00078 13.6598 5.34344 16.3896 4.21271C19.1195 3.08198 22.0453 2.5 25 2.5C27.9547 2.5 30.8806 3.08198 33.6104 4.21271C36.3402 5.34344 38.8206 7.00078 40.9099 9.0901C42.9992 11.1794 44.6566 13.6598 45.7873 16.3896C46.918 19.1195 47.5 22.0453 47.5 25C47.5 27.9547 46.918 30.8806 45.7873 33.6104C44.6566 36.3402 42.9992 38.8206 40.9099 40.9099C38.8206 42.9992 36.3402 44.6566 33.6104 45.7873C30.8805 46.918 27.9547 47.5 25 47.5L25 47.5Z" stroke="#8DBB19"/>
<path d="M25.5 15.9906L28.2976 20.7751L28.4087 20.9651L28.6238 21.0115L34.0528 22.1826L30.3528 26.3074L30.2052 26.4719L30.2276 26.6918L30.7872 32.1975L25.701 29.9649L25.5 29.8767L25.299 29.9649L20.2128 32.1975L20.7724 26.6918L20.7948 26.4719L20.6472 26.3074L16.9472 22.1826L22.3762 21.0115L22.5913 20.9651L22.7024 20.7751L25.5 15.9906Z" stroke="#8DBB19"/>
</svg>
