<svg width="18" height="18" viewBox="0 0 18 18" fill="none" xmlns="http://www.w3.org/2000/svg">
<path d="M8.97436 0C11.4127 0 11.7169 0.00897431 12.6736 0.0538461C13.6294 0.0987179 14.28 0.24859 14.8526 0.471154C15.4449 0.699103 15.9438 1.00782 16.4428 1.5059C16.8992 1.95452 17.2523 2.4972 17.4776 3.09615C17.6992 3.66782 17.85 4.31936 17.8949 5.27513C17.9371 6.2318 17.9487 6.53603 17.9487 8.97436C17.9487 11.4127 17.9397 11.7169 17.8949 12.6736C17.85 13.6294 17.6992 14.28 17.4776 14.8526C17.2529 15.4519 16.8997 15.9947 16.4428 16.4428C15.9941 16.899 15.4514 17.2521 14.8526 17.4776C14.2809 17.6992 13.6294 17.85 12.6736 17.8949C11.7169 17.9371 11.4127 17.9487 8.97436 17.9487C6.53603 17.9487 6.2318 17.9397 5.27513 17.8949C4.31936 17.85 3.66872 17.6992 3.09615 17.4776C2.49696 17.2527 1.95419 16.8996 1.5059 16.4428C1.04947 15.9943 0.696349 15.4516 0.471154 14.8526C0.24859 14.2809 0.0987179 13.6294 0.0538461 12.6736C0.0116666 11.7169 0 11.4127 0 8.97436C0 6.53603 0.00897431 6.2318 0.0538461 5.27513C0.0987179 4.31846 0.24859 3.66872 0.471154 3.09615C0.695725 2.49683 1.04893 1.95401 1.5059 1.5059C1.95432 1.04931 2.49705 0.696167 3.09615 0.471154C3.66872 0.24859 4.31846 0.0987179 5.27513 0.0538461C6.2318 0.0116666 6.53603 0 8.97436 0ZM8.97436 4.48718C7.78429 4.48718 6.64295 4.95993 5.80144 5.80144C4.95993 6.64295 4.48718 7.78429 4.48718 8.97436C4.48718 10.1644 4.95993 11.3058 5.80144 12.1473C6.64295 12.9888 7.78429 13.4615 8.97436 13.4615C10.1644 13.4615 11.3058 12.9888 12.1473 12.1473C12.9888 11.3058 13.4615 10.1644 13.4615 8.97436C13.4615 7.78429 12.9888 6.64295 12.1473 5.80144C11.3058 4.95993 10.1644 4.48718 8.97436 4.48718ZM14.8077 4.26282C14.8077 3.9653 14.6895 3.67997 14.4791 3.46959C14.2688 3.25921 13.9834 3.14103 13.6859 3.14103C13.3884 3.14103 13.103 3.25921 12.8927 3.46959C12.6823 3.67997 12.5641 3.9653 12.5641 4.26282C12.5641 4.56034 12.6823 4.84567 12.8927 5.05605C13.103 5.26643 13.3884 5.38462 13.6859 5.38462C13.9834 5.38462 14.2688 5.26643 14.4791 5.05605C14.6895 4.84567 14.8077 4.56034 14.8077 4.26282ZM8.97436 6.28205C9.6884 6.28205 10.3732 6.5657 10.8781 7.07061C11.383 7.57552 11.6667 8.26031 11.6667 8.97436C11.6667 9.6884 11.383 10.3732 10.8781 10.8781C10.3732 11.383 9.6884 11.6667 8.97436 11.6667C8.26031 11.6667 7.57552 11.383 7.07061 10.8781C6.5657 10.3732 6.28205 9.6884 6.28205 8.97436C6.28205 8.26031 6.5657 7.57552 7.07061 7.07061C7.57552 6.5657 8.26031 6.28205 8.97436 6.28205Z" fill="#333333" fill-opacity="0.7"/>
</svg>
