<svg width="50" height="50" viewBox="0 0 50 50" fill="none" xmlns="http://www.w3.org/2000/svg">
<path fill-rule="evenodd" clip-rule="evenodd" d="M3.5 3.5C2.98023e-07 7.03333 0 12.6833 0 24V26C0 37.3 2.98023e-07 42.95 3.5 46.5C7.03333 50 12.6833 50 24 50H26C37.3 50 42.95 50 46.5 46.5C50 42.9668 50 37.3167 50 26V24C50 12.7 50 7.05 46.5 3.5C42.9668 2.98023e-07 37.3167 0 26 0H24C12.7 0 7.05 2.98023e-07 3.5 3.5ZM8.43332 15.2167C8.7 28.2167 15.2 36.0168 26.6 36.0168H27.2668V28.5833C31.45 29 34.6167 32.0667 35.8833 36.0168H41.8C41.1932 33.7723 40.1172 31.6818 38.6435 29.8833C37.1698 28.085 35.3315 26.6195 33.25 25.5833C35.1152 24.4475 36.7262 22.939 37.9823 21.1525C39.2383 19.366 40.1125 17.3396 40.55 15.2H35.1833C34.0168 19.3333 30.55 23.0832 27.2668 23.4332V15.2167H21.8832V29.6167C18.55 28.7832 14.35 24.75 14.1666 15.2167H8.43332Z" fill="#8DBB19"/>
</svg>
